<?xml version="1.0" encoding="utf-8"?>
<!DOCTYPE svg PUBLIC "-//W3C//DTD SVG 1.0//EN" "http://www.w3.org/TR/2001/REC-SVG-20010904/DTD/svg10.dtd">
<svg version="1.0" xmlns="http://www.w3.org/2000/svg" width="1408px" height="786px" viewBox="0 0 1408 786" preserveAspectRatio="xMidYMid meet">
 <g fill="#fefefe">
  <path d="M0 392.9 l0 -392.9 704 0 704 0 0 392.9 0 392.9 -704 0 -704 0 0 -392.9z m248.8 142.5 c3.2 -2.3 6.7 -6.4 10.5 -12.5 6.8 -10.6 16.6 -20.8 26.6 -27.4 9 -6 23 -11.5 29.5 -11.6 2.7 0 5.1 -0.4 5.4 -1 0.4 -0.6 5.6 -1 12.4 -1 19.5 0 33.6 3.9 48.3 13.5 10.4 6.9 18 14.6 26.3 27.2 5 7.7 8 11.2 11.2 13 5.2 3 13.1 5 16.4 4.2 3.2 -0.8 12.3 -8 14.6 -11.5 3.3 -5.1 5.2 -12.6 4.3 -16.7 -0.5 -2.1 -6.3 -16.3 -13 -31.4 -6.8 -15.1 -17.4 -39.5 -23.7 -54.1 -6.3 -14.6 -15.9 -36.4 -21.2 -48.5 -5.2 -12.1 -9.5 -23.2 -9.5 -24.9 0 -2.1 1.8 -4.6 8.4 -10.9 l8.4 -8.2 -4 1 c-11.1 2.7 -13.9 3.1 -17.4 2.8 l-3.7 -0.3 -18.8 -43.4 c-10.3 -23.8 -19.4 -44 -20.1 -44.8 -2.5 -2.9 -5 -3.6 -8.2 -2.4 -4.6 1.9 -1.7 -4.1 -40.8 85.4 -4.9 11.3 -10.8 24.9 -13.2 30.2 l-4.2 9.7 -13.6 5 c-7.4 2.8 -15.8 6 -18.6 7.4 -2.8 1.2 -7 2.9 -9.2 3.5 -3.1 1 -42.6 16.1 -61.4 23.5 -1.8 0.6 -1.5 1 2 2.6 7.8 3.3 48 18.9 49.4 19.2 0.9 0.1 2.4 -2.3 4 -7 1.4 -3.9 3 -7.7 3.5 -8.3 0.5 -0.6 8.2 -4.7 17.1 -9.1 22.2 -11.1 20.9 -10.4 43.7 -22.3 11.3 -5.9 32.5 -16.8 47.3 -24.1 23.8 -11.9 27.5 -13.4 32.1 -13.4 l5.1 0 -0.3 3.6 c-0.3 3.5 -1.4 4.3 -65.8 47.3 l-65.5 43.8 -2.9 5.6 c-4.3 8.5 -26.9 60.5 -27.6 63.5 -1.4 5.6 3.8 16.7 10 21.6 4.4 3.4 12.4 5.8 17.2 5.1 2.5 -0.3 6.2 -1.9 9 -4z m680.1 -36.4 c-0.2 -2.4 -0.3 -0.1 -0.3 4.9 0 5.1 0.1 7 0.3 4.3 0.2 -2.7 0.2 -6.9 0 -9.2z m44 -3.5 c-0.2 -3.3 -0.3 -0.6 -0.3 5.8 0 6.4 0.1 9.1 0.3 5.9 0.2 -3.3 0.2 -8.6 0 -11.8z m-446.1 9.2 c-0.2 -1.6 -0.4 -0.5 -0.4 2.3 0 2.9 0.2 4.1 0.4 2.9 0.2 -1.3 0.2 -3.6 0 -5.1z m365.3 -9.2 c-0.2 -3.3 -0.3 -0.8 -0.3 5.3 0 6.2 0.1 8.9 0.3 5.9 0.2 -3 0.2 -8 0 -11.3z m18.4 0 c-0.2 -3.3 -0.3 -0.8 -0.3 5.3 0 6.2 0.1 8.9 0.3 5.9 0.2 -3 0.2 -8 0 -11.3z m307 6.7 c-0.2 -1.8 -0.4 -0.4 -0.4 3.3 0 3.7 0.2 5.1 0.4 3.4 0.2 -1.8 0.2 -4.9 0 -6.7z m-465.6 -1 c-0.2 -1.8 -0.4 -0.4 -0.4 3.3 0 3.7 0.2 5.1 0.4 3.4 0.2 -1.8 0.2 -4.9 0 -6.7z m63.4 -0.5 c-0.2 -2.1 -0.4 -0.6 -0.4 3.3 0 4 0.2 5.6 0.4 3.9 0.2 -1.8 0.2 -5.1 0 -7.2z m-196.5 -15.9 c-0.1 -4.7 -0.3 -1.1 -0.3 7.9 0 9 0.2 12.8 0.3 8.5 0.2 -4.3 0.2 -11.7 0 -16.4z m387.8 2.6 c-0.2 -3.8 -0.3 -0.9 -0.3 6.3 0 7.4 0.1 10.4 0.3 7 0.2 -3.5 0.2 -9.5 0 -13.3z m-286.2 -4.9 c0 -7.4 -1.8 -7.4 -4.8 0 l-2.1 5.6 3.5 0 3.5 0 0 -5.6z m-31.1 0.9 c-0.3 -0.9 -0.9 -2.8 -1.2 -4.1 -1 -4.1 -3.5 -3 -3.5 1.6 0 3.7 0.2 4.1 2.7 4.1 2 0 2.6 -0.4 2 -1.6z m-24.5 -46 c2.9 -0.8 7.3 -3 9.7 -4.8 4.2 -3.2 11.1 -11.3 11.1 -12.9 0 -0.5 -2.6 -1.1 -5.7 -1.5 -5.6 -0.6 -5.7 -0.6 -9.6 3.4 -4.9 5.1 -10.2 6.7 -20.7 6 -10 -0.6 -14.7 -3.4 -18.6 -11.2 -2.9 -5.8 -3.6 -13.9 -1.4 -16.1 0.9 -0.9 9 -1.2 30.2 -1.2 l29 0 0 -3.1 c0 -5.5 -3.2 -18.6 -5.6 -23.4 -2.4 -4.7 -9 -11.7 -13.9 -14.7 -12.5 -7.7 -31.5 -5.3 -43.2 5.4 -21.9 20 -17.6 58.8 7.9 71.8 9.2 4.7 19.6 5.5 31 2.3z m157.7 -0.6 c7.1 -2.7 16.7 -11.6 20.2 -18.7 7.7 -15.7 6.1 -35.7 -4 -49.4 -9 -12.3 -25.8 -18.2 -40.1 -14 -11.8 3.4 -19.9 10.3 -25.2 21.6 -8.1 17.3 -5.3 37.5 7 50.7 6.2 6.5 11.8 9.8 20.1 11.7 7.5 1.6 14.4 1.1 22.1 -1.7z m204.5 -0.4 c18.9 -8.3 29 -33.4 21.8 -54.6 -4.3 -12.8 -10.4 -19.9 -22.2 -25.4 -5 -2.4 -7.3 -2.8 -14.6 -2.8 -7.6 0 -9.5 0.4 -15.3 3.3 -22.2 10.6 -30.9 38.2 -19.3 60.9 2.8 5.5 10.5 13.6 15.9 16.8 9.6 5.6 23.5 6.4 33.9 1.8z m89.6 2.5 c18.8 -3.1 32.5 -20.8 32.5 -42.1 0 -18 -8.8 -32.9 -23.6 -40 -5.9 -2.9 -7.7 -3.2 -15.6 -3.1 -8.1 0 -9.5 0.3 -16.5 3.8 -11.3 5.5 -18.4 14.4 -21.6 26.8 -4.1 15.5 -0.2 31.3 10.4 42.7 5.9 6.3 11.4 9.5 19.1 11.5 7.8 1.8 6.5 1.8 15.1 0.4z m-520.7 -4.1 c-1.5 -4.1 -16.2 -46.1 -28.7 -81.7 -3 -8.7 -6.5 -18.6 -7.9 -22 l-2.4 -6.1 -11.9 -0.3 c-10.5 -0.2 -11.9 -0.1 -12.5 1.5 -0.4 1 -4.4 12.2 -8.8 24.9 -21.3 60.7 -29.7 85.1 -29.7 86.1 0 0.5 3.8 0.9 8.5 0.9 l8.5 0 3.9 -12 c2.1 -6.7 4.4 -12.7 4.9 -13.3 0.8 -1 7.3 -1.3 25.9 -1.3 l24.8 0 4.1 13.1 4.1 13 8.6 0.6 c4.7 0.3 8.9 0.6 9.3 0.7 0.4 0.1 0 -1.7 -0.8 -4.1z m333.2 1.7 c15.9 -4.8 25.7 -17.8 24.3 -31.9 -1 -9.4 -8.3 -19 -16.5 -21.8 -3.3 -1 -3.7 -1.5 -3.7 -4.7 0 -2.8 0.6 -3.7 3.1 -5 8.4 -4.3 14.2 -15.3 12.7 -23.7 -2.7 -14.7 -14.5 -23.5 -32.6 -24.5 -4.5 -0.2 -16.6 -0.6 -26.8 -0.8 l-18.7 -0.4 0 57.1 c0 44.7 0.3 57.3 1.3 57.7 0.6 0.3 12.5 0.4 26.3 0.2 19.5 -0.3 26.3 -0.8 30.7 -2.1z m258.9 -12.9 l0.5 -14.9 3.3 -3.7 c2.6 -3 4.1 -3.8 6.7 -3.8 3.3 0 3.9 0.7 14 16.2 14.5 22.3 12.5 20.4 22.4 21 6.1 0.4 8.2 0.2 7.7 -0.6 -0.4 -0.7 -7.3 -10.9 -15.3 -22.9 -18.9 -28 -18.8 -25 -1.9 -44.1 7 -7.9 13 -14.8 13.4 -15.5 0.4 -0.8 -1.7 -1.1 -6.9 -1.1 l-7.5 0 -4.6 5.4 c-2.6 3.1 -9.2 10.6 -14.8 16.9 -9 10.2 -10.5 11.5 -13.5 11.5 l-3.4 0 -0.2 -31.9 -0.3 -32 -7.9 -0.3 -8 -0.3 0 57.9 0 57.9 8 -0.3 7.9 -0.3 0.5 -14.9z m-460.5 -11.9 c0 -28.4 0.6 -32.8 4.9 -37.5 4.4 -4.7 7.6 -5.8 16.1 -5.8 l7.7 0 0 -7.8 0 -7.8 -4.8 0.7 c-6.8 0.9 -11.7 3.9 -15.1 9.2 -2.6 3.8 -3.6 4.6 -6.3 4.6 l-3.4 0 0 -6.7 0 -6.7 -7.7 0 -7.7 0 -0.1 23.3 c-0.2 21.2 -0.1 52.6 0 58.3 0.1 2.1 0.5 2.3 8.3 2.3 l8.2 0 0 -26.3z"/>
  <path d="M277.3 457.5 c0 -9.2 0.3 -11.3 1.6 -11.8 0.9 -0.3 6.1 -0.6 11.7 -0.6 5.5 0 10.7 0.3 11.7 0.6 1.3 0.5 1.6 2.6 1.6 11.8 l0 11.2 -13.3 0 -13.3 0 0 -11.2z"/>
  <path d="M305.3 462.9 c-0.6 -5.4 0 -15.5 1 -16.5 0.3 -0.3 6.2 -0.7 13.3 -1 l12.9 -0.6 0 12 0 11.9 -13.2 0 -13.3 0 -0.7 -5.7z"/>
  <path d="M333.8 457.2 l0.3 -11.6 13.3 0 13.3 0 0.3 11.6 0.3 11.5 -13.9 0 -13.9 0 0.3 -11.5z"/>
  <path d="M362.2 458 c0 -9.1 0.2 -10.7 1.8 -11.4 0.9 -0.4 7.2 -1 13.8 -1.3 l12 -0.4 0 11.9 0 11.9 -13.8 0 -13.8 0 0 -10.6z"/>
  <path d="M288.6 440.8 c0 -4.8 6.4 -10 12.2 -10 4.7 0 4.7 0.1 3.6 8.6 l-0.7 4.7 -7.5 0 -7.6 0 0 -3.3z"/>
  <path d="M306 432.8 l0 -11.3 13.3 0 13.3 0 0 11.3 0 11.3 -13.3 0 -13.3 0 0 -11.3z"/>
  <path d="M333.8 432.6 l0.3 -11.6 13.6 -0.3 13.5 -0.3 0 11.9 0 11.8 -13.8 0 -13.9 0 0.3 -11.5z"/>
  <path d="M362.4 432.6 l0.3 -11.6 13.6 -0.3 13.5 -0.3 0 11.9 0 11.8 -13.8 0 -13.9 0 0.3 -11.5z"/>
  <path d="M318.2 415.7 c0 -3.2 0.6 -4.4 3.5 -6.7 2.4 -1.9 4.8 -2.9 7.2 -2.9 l3.7 0 0 6.7 0 6.7 -7.2 0 -7.2 0 0 -3.8z"/>
  <path d="M334.3 418.8 c-0.9 -0.8 -0.9 -19 -0.1 -21.2 0.5 -1.3 2.8 -1.6 13.8 -1.6 l13.2 0 0 11.8 0 11.8 -13.1 0 c-7.3 0 -13.5 -0.3 -13.8 -0.7z"/>
  <path d="M362.6 418.2 c-0.2 -0.7 -0.3 -5.9 -0.2 -11.6 l0.3 -10.1 13.6 -0.3 13.5 -0.3 0 11.9 0 11.8 -13.3 0 c-10.1 0 -13.5 -0.3 -13.9 -1.3z"/>
  <path d="M367.3 376.6 c0 -11.4 0.5 -12.3 7.5 -12.3 4.4 0 4.8 0.9 4.8 11.3 0 11.1 -0.1 11.3 -6.8 11.3 l-5.5 0 0 -10.2z"/>
  <path d="M292.7 358 c0 -2.8 20.3 -51.9 32.3 -78.4 l3.4 -7.5 4.2 0 4.1 0 0 37.8 0 37.8 -6.9 2.7 c-3.9 1.4 -11.8 4.5 -17.6 6.8 -6.5 2.5 -12.5 4.1 -15.1 4.1 -4.3 0 -4.4 -0.1 -4.4 -3.2z"/>
  <path d="M628.6 384.1 c0.7 -7.2 4.9 -14.2 9.9 -17 5.2 -2.8 22 -2.4 26.3 0.8 4.3 3.1 7.5 10.1 7.5 16.5 l0 5.4 -22.1 0 -22.2 0 0.6 -5.7z"/>
  <path d="M796.6 424.8 c-4.5 -2.7 -8.5 -7.8 -9.9 -12.7 -1.7 -5.8 -1.6 -26.7 0.1 -31.9 3.4 -10 10.2 -14.7 21.6 -14.8 9.9 0 14.9 2.9 18.9 10.6 3 5.9 3.1 6.5 3.1 20 0 13.4 -0.1 14.1 -3.1 20.1 -4.4 8.9 -7.7 10.7 -18.8 10.7 -6.8 0 -9.5 -0.4 -11.9 -1.9z"/>
  <path d="M1004.3 426.8 c-5 -1.2 -8.2 -3.9 -11.2 -9.2 -5.3 -9.8 -5.7 -32.1 -0.7 -41.7 1.1 -2.4 3.8 -5.5 5.8 -7.2 3.2 -2.4 5 -2.9 11.4 -3.3 13.2 -0.6 20.1 3.8 23.4 14.8 2 6.8 1.8 25.1 -0.2 32.1 -3.6 12 -14.9 17.7 -28.5 14.4z"/>
  <path d="M1104.6 427.2 c-0.5 -0.2 -2.3 -0.6 -3.8 -0.9 -4.1 -0.9 -9.7 -7.3 -11.8 -13.3 -2.3 -6.4 -2.6 -25.4 -0.4 -32.4 1.6 -5.9 6.5 -12 10.9 -13.8 4.5 -1.8 15.9 -1.8 20.4 0 4.3 1.8 8.3 5.9 10.4 10.8 2.5 5.6 3.1 26.8 0.9 34.2 -2.1 7.2 -7.3 13.1 -12.7 14.7 -3.7 1.1 -11.6 1.5 -14 0.7z"/>
  <path d="M527.1 393.2 c0 -2.1 3.2 -13.5 7 -25.4 l6.9 -21.5 4.1 -0.3 4.1 -0.3 6.9 21.8 c3.8 12 6.9 23.5 6.9 25.7 l0 3.8 -17.9 0 -17.9 0 0.1 -3.8z"/>
  <path d="M887.9 405.5 c-0.3 -10.6 -0.2 -19.6 0.3 -20.2 0.4 -0.4 8.6 -0.6 18.1 -0.4 14.1 0.3 17.9 0.7 21.1 2.3 6.1 3.1 8.3 7 8.8 16.1 0.4 10.6 -1.9 16.1 -8.3 19.2 -4.1 1.9 -6.2 2.1 -22 2.1 l-17.4 0 -0.6 -19.1z"/>
  <path d="M888.2 355.7 l0 -18 16.7 0 c13.7 0 17.2 0.3 20.2 1.8 4.9 2.4 7.2 7.3 7.2 15.3 0 8.1 -2 12.7 -7.1 15.8 -3.4 2.1 -5.1 2.4 -20.3 2.7 l-16.7 0.4 0 -18z"/>
 </g>
 <g fill="#1193cf">
  <path d="M422.9 541.9 c-7.9 -2.6 -11.2 -5.4 -18.3 -16.3 -8.2 -12.5 -15.8 -20.3 -26.2 -27.1 -9.3 -6 -18.2 -9.7 -28.8 -11.9 -8.5 -1.7 -24.3 -2.1 -25.8 -0.7 -0.6 0.5 -3.5 1.1 -6.5 1.3 l-5.4 0.3 0.5 -5.3 c0.4 -4.1 0.2 -5.4 -0.7 -5.4 -0.8 0 -1.6 -1.7 -2 -3.8 -1.2 -7.9 -1.7 -7.5 9.6 -7.5 l10.2 0 0 -8.7 0 -8.7 -4.6 0 c-4.6 0 -4.6 0 -4.6 -3.6 0 -3.6 0 -3.6 4.6 -3.6 l4.6 0 0 -8.2 0 -8.2 -6.1 0 -6.1 0 0 -3.5 c0 -1.9 -0.4 -3.7 -0.8 -3.9 -1.1 -0.4 -5.3 -9.6 -5.3 -11.6 0 -0.8 -0.7 -1.5 -1.5 -1.5 -1.5 0 -2.1 -5.3 -0.9 -8.5 0.3 -0.8 14.6 -10.8 31.8 -22.3 21.7 -14.4 30.7 -21 29.3 -21.2 -1.2 -0.2 -15 6.1 -30.9 14 -15.8 8 -29.2 14.4 -29.8 14.4 -0.5 0 -1 -1.6 -1 -3.6 0 -2.5 -0.5 -3.6 -1.4 -3.6 -1.8 0 -3.6 -13.5 -1.8 -14.1 0.5 -0.1 0.8 -1.1 0.5 -2 -0.3 -1.3 1 -2.3 5.5 -4 3.3 -1.2 9.7 -3.7 14.4 -5.4 l8.4 -3.2 0 -34.9 c0 -27 -0.3 -34.7 -1.2 -34.4 -1.2 0.4 -12.8 26.1 -26.1 57.8 -5.2 12.5 -7.4 16.7 -8.7 16.7 -1.4 0 -1.8 -0.8 -1.8 -3.3 0 -2.7 -0.6 -3.7 -2.8 -4.6 -1.5 -0.7 -3.4 -1.3 -4.1 -1.3 -0.7 0 -1.3 -1.1 -1.3 -2.5 0 -1.4 -0.6 -2.7 -1.3 -2.9 -1 -0.2 0.2 -4 4.4 -13.6 3.3 -7.3 11.6 -26.2 18.4 -42 14.1 -32.2 15.2 -34.5 18.9 -36.1 4.4 -2 10.3 -1.5 13.2 1.1 1.8 1.5 8.7 16.2 21.6 45.7 10.3 23.9 19.3 43.6 19.9 43.8 0.5 0.2 5.8 -0.9 12 -2.4 6 -1.4 13.1 -2.9 15.7 -3.2 l4.7 -0.6 -12.5 12.5 c-10 9.9 -12.4 12.8 -11.7 14.1 0.5 0.9 7 15.8 14.4 32.9 7.5 17.2 17.4 40 22 50.7 4.6 10.7 13.1 30 18.8 43 11.1 24.8 13 31 11.9 37.1 -1.7 9.6 -6.2 16.2 -15.2 22.1 -4.5 3.1 -12.3 3.5 -19.7 1.2z m-65 -84.7 l-0.3 -8.5 -10.2 0 -10.2 0 -0.3 8.5 -0.3 8.4 10.8 0 10.8 0 -0.3 -8.4z m28.9 -0.4 l0 -8.9 -8.9 0.6 c-12.8 0.7 -12.6 0.5 -12.6 9.5 l0 7.6 10.7 0 10.7 0 0 -8.8z m-28.7 -24.5 l0 -8.8 -10.4 0.3 -10.5 0.3 -0.3 8.5 -0.3 8.4 10.8 0 10.7 0 0 -8.7z m28.7 0 l0 -8.8 -10.4 0.3 -10.5 0.3 -0.3 8.5 -0.3 8.4 10.8 0 10.7 0 0 -8.7z m-57.3 -19.4 c0 -1.9 -0.2 -3.6 -0.6 -3.6 -0.9 0 -7.6 5.6 -7.6 6.4 0 0.4 1.8 0.7 4.1 0.7 4 0 4.1 -0.1 4.1 -3.6z m28.7 -5.1 l0 -8.7 -10.1 0 c-8.3 0 -10.2 0.3 -10.7 1.6 -0.8 2.1 -0.8 14.2 0.1 15 0.3 0.4 5.2 0.7 10.7 0.7 l10 0 0 -8.7z m28.7 0 l0 -8.8 -10.4 0.3 -10.5 0.3 -0.3 7.1 c-0.2 3.9 -0.1 7.7 0.2 8.5 0.4 1 3.2 1.3 10.8 1.3 l10.2 0 0 -8.7z m-10.8 -25.7 c0.9 -2.4 0.7 -12 -0.3 -13.6 -0.7 -1 -1.3 -1.1 -3.1 -0.2 -1.8 1 -2.1 2.1 -2.1 8.3 0 6.9 0.1 7.2 2.5 7.2 1.3 0 2.8 -0.7 3.1 -1.6z"/>
  <path d="M526 506.1 l0 -9.8 3.9 0.1 c2 0.1 2.9 0.4 1.7 0.6 -1.8 0.3 -2 1.2 -2 9.3 0 7.6 -0.2 8.9 -1.7 9.2 -1.6 0.3 -1.8 -0.6 -1.8 -9.4z"/>
  <path d="M618 504.5 c0 -9.5 0.1 -10.2 2 -10.2 1.8 0 2 0.7 2 8 0 9.2 -0.7 12.5 -2.7 12.5 -1.1 0 -1.4 -2.3 -1.4 -10.2z"/>
  <path d="M297.8 467.1 c0 -0.8 0.7 -1.5 1.5 -1.5 1.2 0 1.5 -1.5 1.5 -8.1 0 -6.2 -0.3 -8.2 -1.5 -8.7 -3.1 -1.1 -1.7 -3.7 2 -3.7 l3.6 0 0 11.8 0 11.8 -3.6 0 c-2.5 0 -3.6 -0.5 -3.6 -1.5z"/>
  <path d="M797.3 441.5 c-8.3 -1.8 -13.8 -5.1 -20.1 -11.7 -8.7 -9.4 -12.7 -22.5 -11.6 -38.5 1.4 -19.7 12 -34.4 28.7 -39.5 5.6 -1.7 8.8 -2 16.4 -1.7 23.3 1.1 37.8 16 40.1 41.3 0.8 8.9 -1.4 22.2 -5.1 29.6 -3.6 7.4 -13.1 16.1 -20.6 18.9 -7.6 2.8 -19.4 3.5 -27.8 1.5z m20.4 -20.2 c2.1 -1.4 4.6 -4.7 6.5 -8.5 2.9 -5.6 3.1 -7 3.1 -17 0 -9.9 -0.2 -11.3 -3.1 -16.9 -2.5 -4.8 -4 -6.4 -7.7 -8.3 -10.8 -5.5 -22.6 0 -26.7 12.5 -1.6 5.1 -1.7 20.2 -0.1 25.8 1.4 4.9 5.3 9.9 9.9 12.7 4.5 2.9 13.5 2.7 18 -0.3z"/>
  <path d="M717.2 441.3 l-9.8 -0.4 0.2 -24.8 c0.1 -13.6 0.2 -33.9 0.3 -44.9 l0.2 -20.3 10.7 0 10.7 0 0 6.9 0 6.9 3.3 -4.7 c4.6 -6.5 9.3 -9 18.7 -9.7 l7.7 -0.6 0 10.9 0 10.8 -7.8 0 c-4.2 0 -8.7 0.5 -9.9 1.1 -3.4 1.7 -8 6.2 -9.2 9.1 -0.7 1.6 -1.4 13.3 -1.7 31.2 -0.4 24.5 -0.7 28.7 -2 28.7 -0.8 0.1 -5.9 -0.1 -11.4 -0.2z"/>
 </g>
 <g fill="#1089cd">
  <path d="M227.6 541.5 c-2.9 -1 -6.4 -2.9 -8.1 -4.2 -7.1 -5.4 -11.6 -16.6 -10.3 -25.2 0.3 -2.5 6 -17.1 12.8 -32.4 19.1 -43.5 12.2 -35.3 53.7 -62.9 20.5 -13.7 36.6 -23.8 38.1 -23.8 2.3 0 2.3 0.1 0.8 3.1 -0.9 1.7 -2 3.1 -2.6 3.1 -0.5 0 -0.9 0.5 -0.9 1 0 0.7 0.6 0.7 1.9 0.1 2.5 -1.3 3.3 -0.5 2.3 2.4 -1 2.8 -0.4 4.7 1.7 4.7 1.2 0 1.3 0.3 0.4 1.2 -0.9 0.9 -0.8 1.6 0.5 3.1 0.9 1 1.3 1.8 0.9 1.8 -0.4 0 0 0.7 0.9 1.6 1.2 1.2 2.9 1.5 6.4 1.2 3.3 -0.3 5.3 0 6.1 0.8 1.4 1.6 1.6 3.9 0.2 3 -0.5 -0.3 -1 -0.1 -1 0.6 0 0.8 -0.5 0.6 -1.2 -0.4 -1.2 -1.5 -1.6 -1.5 -4.1 -0.3 -1.5 0.8 -3.6 1.6 -4.6 1.9 -1.7 0.4 -1.7 0.5 0 0.6 1 0 1.5 0.6 1.2 1.1 -0.3 0.6 -3.6 1 -7.3 1 l-6.5 0 0 8.2 0 8.2 9.1 0 c5 0 9.8 0.3 10.7 0.6 1.3 0.5 1.6 -0.4 1.8 -5.8 l0.2 -6.5 0.3 5.9 c0.3 4 0.8 5.8 1.7 5.8 1 0 1.3 -1.1 1 -4.3 -1.2 -11.5 -1.1 -13.6 0.1 -14.8 1 -0.9 1.4 -0.2 1.9 3.5 0.3 2.6 0.6 7.2 0.6 10.1 l0 5.5 10.1 0 c5.7 0 10.5 0.4 10.8 1 0.4 0.6 -3 1 -9.5 1 -8.8 0 -10.3 0.3 -12 2 -1.8 1.9 -1.7 2 0.6 2 l2.4 0 -2.4 1.7 c-2.4 1.5 -2.6 1.5 -3.8 -0.2 -1.4 -1.8 -1.4 -1.8 -1.4 0 0 1.5 -0.3 1.6 -1.2 0.7 -1.3 -1.3 -7.6 -1.5 -15.9 -0.6 -5 0.6 -5.3 0.8 -5.9 4.2 -0.3 1.9 -0.3 5.5 0.1 8 l0.6 4.6 9.6 0 c5.2 0 9.8 0.4 10.1 1 0.4 0.6 -2.6 1 -8.2 1 -6.8 0 -8.6 0.3 -8 1.3 0.4 0.6 0.6 2 0.5 3.1 -0.2 1.2 0.3 1.7 1.8 1.7 1.2 0 1.8 0.5 1.5 1 -0.3 0.6 0 1 0.7 1 1 0 1 0.2 0 0.9 -1.7 1.1 -1.7 2.1 0 3.4 1 0.7 1 1.1 -0.4 2.3 -1 0.7 -1.8 2 -1.8 2.9 0 1 -3.1 2.7 -9 4.8 -17.4 6.1 -33.2 19.1 -43.8 36 -7.7 12.1 -12.8 15.9 -22.6 16.8 -5.3 0.4 -8.2 0.1 -12.2 -1.3z m74.3 -84.4 l0 -8.5 -8.7 -0.3 c-12.9 -0.4 -12.8 -0.5 -12.8 9.2 l0 8.1 10.7 0 10.7 0 0 -8.5z m27 -11.5 c0.4 -1.1 -0.2 -1.5 -2.5 -1.5 -2 0 -3.1 0.5 -3.1 1.5 0 0.9 0.9 1.5 2.5 1.5 1.3 0 2.7 -0.7 3.1 -1.5z m-27.8 -8.2 c0.5 -4.5 -0.6 -4.5 -5.7 0 l-4 3.6 4.6 0 c4.6 0 4.7 -0.1 5.1 -3.6z"/>
  <path d="M969 505.5 c0 -6.4 0.2 -7.2 2 -7.2 1.8 0 2 0.7 2 7.2 0 6.4 -0.2 7.2 -2 7.2 -1.8 0 -2 -0.7 -2 -7.2z"/>
  <path d="M969 490.1 l0 -6.1 3.1 0 c2.1 0 3.1 0.5 3.1 1.6 0 1.4 0.3 1.4 1.5 0.4 1.2 -1 1.5 -1 1.5 0.4 0 1 -0.9 1.6 -2.6 1.6 -2.3 0 -2.6 0.4 -2.6 4.1 0 3.4 -0.3 4.1 -2 4.1 -1.8 0 -2 -0.7 -2 -6.1z"/>
  <path d="M641 441.5 c-16 -3.5 -27.3 -14.8 -31.2 -31.2 -1.6 -7 -1.5 -20.7 0.1 -27.8 3.1 -13.2 13.1 -25.3 24.4 -29.5 11.9 -4.5 29.2 -3.7 38 1.7 4.9 3.1 11.6 10 13.9 14.7 3 5.7 5.6 18.3 5.6 26.5 l0 6.1 -29.1 0 c-31.8 0 -32.2 0.1 -30.8 5.8 1.1 4.9 5.5 11.3 9.1 13.6 1.9 1.1 5.7 2.4 8.5 2.7 7.4 0.9 12.8 -1 18.3 -6.3 2.6 -2.6 5.2 -4.4 5.9 -4.2 0.7 0.3 4.3 0.8 8 1.2 9.5 1 9.9 1.4 7.3 7.1 -5.1 10.3 -13.8 17.1 -25.5 19.5 -8.5 1.8 -14.2 1.8 -22.5 0z m28.2 -57.1 c0 -3.5 -4.2 -11.1 -7.5 -13.4 -4.1 -3.1 -15.3 -3.5 -20.2 -0.8 -3.7 2 -8.5 8.9 -9.6 13.8 l-0.6 2.8 18.9 0 18.9 0 0 -2.4z"/>
  <path d="M584.4 441.1 l-8.6 -0.6 -4.1 -13 -4.1 -13.1 -21.7 0 c-16.2 0 -22 0.3 -22.8 1.3 -0.5 0.6 -2.8 6.7 -4.9 13.3 l-3.9 12 -12.6 0 c-7.6 0 -12.6 -0.4 -12.6 -1 0 -0.5 5.3 -16.3 11.9 -35 13.5 -39.2 27.6 -79.3 28.7 -82 0.6 -1.6 2.1 -1.7 15.6 -1.5 l14.9 0.3 1.9 5.1 c1.1 2.9 8 22.2 15.2 43 7.3 20.9 15.8 44.9 18.8 53.6 3.1 8.6 5.5 16.4 5.5 17.1 0 1.5 -1.1 1.5 -17.3 0.5z m-24.7 -47.9 c0.1 -2.7 -13.8 -44.3 -14.7 -44 -0.8 0.3 -14.6 41 -14.8 44 -0.1 0.4 6.5 0.7 14.7 0.7 8.2 0 14.8 -0.3 14.8 -0.7z"/>
  <path d="M216.9 435.8 c-4.2 -1.6 -18.8 -7.5 -32.5 -12.9 -13.6 -5.4 -24.7 -10.3 -24.5 -10.9 0.2 -0.6 3.1 -2.1 6.4 -3.4 30.6 -12 61.9 -23.8 64.4 -24.5 1.7 -0.4 4 -1.3 5.1 -1.9 1.1 -0.7 9.2 -4 17.9 -7.3 8.7 -3.3 16.2 -6.4 16.6 -7 0.4 -0.6 4.3 -9.3 8.6 -19.2 4.3 -10 8.3 -18.2 8.8 -18.2 0.5 0 0.6 0.5 0.3 1.1 -0.4 0.6 0 0.9 1.1 0.7 1.5 -0.2 1.8 0.2 1.6 2.6 -0.3 1.9 0.1 2.8 1.2 2.8 0.9 0 1.6 -0.4 1.6 -1 0 -0.5 0.5 -1 1 -1 0.6 0 1 0.8 0.8 1.7 -0.2 1.4 0.3 1.8 2.6 1.6 1.8 -0.1 2.8 0.3 2.8 1.2 0 0.8 -0.4 1.5 -0.9 1.5 -0.5 0 -0.8 1.6 -0.6 3.7 0.2 2 -0.5 5.5 -1.5 7.9 -1.1 2.4 -1.5 4.4 -1 4.6 0.6 0.2 3.1 -0.4 5.6 -1.4 3.7 -1.3 5.2 -1.5 7.2 -0.6 2.5 1.1 2.7 4.3 0.3 4.3 -0.5 0 -0.6 0.5 -0.3 1 0.3 0.6 -0.1 1 -0.9 1 -0.9 0 -1.6 0.4 -1.6 0.9 0 0.5 0.9 0.7 2 0.4 2.5 -0.6 2.8 1.8 0.5 4.2 -1.7 1.6 -2 3.1 -0.6 2.1 0.5 -0.3 1.6 0.8 2.5 2.6 0.9 1.6 1.1 3.1 0.6 3.1 -0.5 0 -0.9 0.4 -0.9 0.9 0 0.6 1.2 0.6 3.3 0 1.7 -0.5 3.4 -0.7 3.6 -0.5 0.6 0.5 -41.9 22.7 -66.2 34.7 -20.5 10 -19.6 9.3 -23 19.5 -1.7 4.8 -3.3 8.8 -3.6 8.7 -0.3 0 -4 -1.3 -8.2 -3.1z"/>
 </g>
 <g fill="#293b4e">
  <path d="M588.7 526.9 c-3.8 -1.1 -4.4 -3.4 -1.4 -5 1.3 -0.7 2.9 -0.7 4.7 0 3.7 1.3 7.8 -0.6 9.1 -4.3 0.5 -1.5 0.8 -3.1 0.5 -3.3 -0.2 -0.3 -2.4 0.1 -4.7 0.7 -3.7 0.9 -4.9 0.8 -8 -0.6 -9.1 -4.3 -10.3 -21.6 -2 -28.1 3.2 -2.5 9.5 -3 13.1 -1.1 1.6 0.9 2.3 0.9 2.6 0 0.2 -0.6 1.6 -1.1 3.2 -1.1 l2.9 0 -0.3 18 c-0.3 18.9 -0.8 21.5 -5.5 23.9 -3 1.6 -10.3 2.1 -14 0.9z m11.2 -19 c2.8 -2.5 2.7 -13.8 -0.2 -16.7 -2.7 -2.7 -5.4 -2.6 -8.9 0.4 -2.5 2 -2.9 3.3 -2.9 7.5 0 6.7 2.6 10.5 6.9 10.5 1.7 0 4.1 -0.7 5.1 -1.7z"/>
  <path d="M522.9 494.8 l0 -20.8 8.5 -0.6 c4.6 -0.3 10.5 -0.3 13.3 0 4.2 0.5 4.8 0.8 4.8 3 0 2.5 -0.2 2.5 -9.8 2.5 -7.1 0 -10.1 0.4 -11.3 1.4 -1.6 1.6 -1.9 7.8 -0.4 7.8 0.6 0 1 0.7 1 1.5 0 0.8 0.7 1.5 1.5 1.5 0.8 0 1.5 0.5 1.5 1 0 0.6 0.7 1 1.5 1 0.8 0 1.5 0.9 1.5 2 0 1.6 -0.7 2 -3.1 2 l-3.1 0 0 9.2 0 9.2 -3.1 0 -3.1 0 0 -20.9z"/>
  <path d="M554.6 510.6 c0 -5 0.1 -5.1 3.1 -5.1 3 0 3.1 0.1 3.1 5.1 0 5 -0.1 5.1 -3.1 5.1 -3 0 -3.1 -0.1 -3.1 -5.1z"/>
  <path d="M615 493.7 c0 -21.3 0.1 -22 2 -22 1.8 0 2 0.7 2.1 6.4 0 3.5 0.3 5.7 0.6 5.1 0.7 -2 2.4 -1.5 2.4 0.7 0 1.7 0.3 1.8 2.7 1 1.4 -0.6 4.4 -1 6.5 -1 3.1 0 4.4 0.6 6.5 3.2 2.6 3 2.7 3.7 2.7 15.9 l0 12.7 -3.1 0 -3.1 0 0 -11.3 c0 -9.9 -0.2 -11.5 -2 -13.3 -2.8 -2.8 -5.7 -2.6 -8.8 0.5 -1.4 1.4 -3.1 2.4 -3.6 2 -0.5 -0.4 -0.9 3.9 -0.9 10.6 0 10.6 -0.1 11.4 -2 11.4 -1.9 0 -2 -0.7 -2 -22z"/>
  <path d="M780.7 504.1 c0 -10.9 -0.1 -11.9 -2.3 -13.3 -3.1 -2.1 -4.3 -2 -7.7 0.8 -2.4 1.9 -3.1 2.1 -4.2 1 -1.4 -1.6 -1.6 -7.2 -0.2 -8.1 0.6 -0.3 1.3 0.1 1.6 0.9 0.5 1.4 0.8 1.4 2.8 0.1 3.6 -2.5 10.6 -1.9 13.5 1 2.5 2.4 2.6 3 2.6 15.9 l0 13.3 -3.1 0 -3.1 0 0 -11.7z"/>
  <path d="M681.5 501.9 l0 -10.7 3.1 0 3.1 0 0 10.7 0 10.7 -3.1 0 -3.1 0 0 -10.7z"/>
  <path d="M648.7 499.9 c0 -8 0.2 -8.7 2 -8.7 1.8 0 2 0.7 2 8.7 0 8 -0.2 8.7 -2 8.7 -1.8 0 -2 -0.7 -2 -8.7z"/>
  <path d="M906.6 499.9 c0 -5.9 0.2 -6.7 2 -6.7 1.8 0 2 0.7 2 6.7 0 5.9 -0.2 6.7 -2 6.7 -1.8 0 -2 -0.7 -2 -6.7z"/>
  <path d="M568.9 497.3 c0 -6.4 0.2 -7.2 2 -7.2 1.8 0 2 0.7 2 7.2 0 6.4 -0.2 7.2 -2 7.2 -1.8 0 -2 -0.7 -2 -7.2z"/>
  <path d="M554.6 485 c0 -12.6 0.1 -13.3 2 -13.3 1.9 0 2 0.7 2 13.3 0 12.6 -0.1 13.3 -2 13.3 -1.9 0 -2 -0.7 -2 -13.3z"/>
  <path d="M1163.2 496.6 c2.8 -0.5 2.9 -1.3 0.1 -4.8 -2.6 -3.3 -7 -3.6 -9.6 -0.6 -2.8 3 -3.6 2.6 -3.6 -1.9 0 -4.6 0.9 -5.2 8.2 -5.2 6.4 0 10.2 3.5 10.2 9.4 0 3.8 -0.1 3.9 -3.8 3.8 -2.5 -0.1 -3 -0.3 -1.5 -0.6z"/>
  <path d="M1176.7 489.6 c0 -4.9 0.2 -5.6 2 -5.6 1.8 0 2 0.7 2 5.6 0 4.9 -0.2 5.6 -2 5.6 -1.8 0 -2 -0.7 -2 -5.6z"/>
  <path d="M719.3 479.4 c0 -4.9 0.2 -5.6 2 -5.6 1.8 0 2 0.7 2 5.6 0 4.9 -0.2 5.6 -2 5.6 -1.8 0 -2 -0.7 -2 -5.6z"/>
  <path d="M1000.9 441.5 c-8.2 -1.8 -13.8 -5.1 -19.9 -11.6 -8.5 -9 -12.1 -19.2 -12.1 -34 0 -19.9 8.6 -34.6 24.6 -42.4 6.2 -3 7.3 -3.2 18.4 -3.2 10.6 0 12.3 0.3 17.7 2.8 11.8 5.5 17.9 12.5 22.3 25.4 2.7 8 3.2 23 1 31.7 -3.3 13.3 -12 24.3 -23.1 29.3 -7.3 3.2 -19.9 4.1 -29 1.9z m19.3 -19.4 c7.2 -3.8 11.2 -13.1 11.2 -26.1 0 -14.1 -4.3 -22.9 -12.8 -26.1 -9.8 -3.8 -19.1 0.2 -23.7 10.3 -1.9 4.4 -2.5 7.2 -2.5 14.4 -0.1 4.9 0.2 10.4 0.6 12.1 1.2 5 5.7 12.6 8.6 14.5 5.4 3.5 12.7 3.8 18.6 0.8z"/>
  <path d="M1098.5 441.4 c-7.8 -1.9 -13.2 -5.1 -19.1 -11.5 -8.5 -9 -12.1 -19.2 -12.1 -34 0 -20.3 7.7 -34 23.3 -41.7 7.7 -3.7 8 -3.8 19.5 -3.8 11.2 0 12.3 0.2 18.5 3.2 15.7 7.5 23.9 22.5 23.8 43.4 -0.1 23.8 -13 41.6 -32.7 44.8 -9.2 1.5 -13.5 1.4 -21.3 -0.4z m17.1 -18 c5.4 -1.6 10.5 -7.6 12.7 -14.7 2 -7.1 1.5 -22.4 -0.9 -28 -5.8 -13.6 -22.2 -16.6 -31.1 -5.6 -4.3 5.1 -5.9 11.6 -5.8 22 0.2 15 5.5 24.4 15.1 26.7 4.6 1 5.6 1 10 -0.3z"/>
  <path d="M869.1 441.4 c-1 -0.4 -1.3 -13.6 -1.3 -60.9 l0 -60.3 23.8 0.5 c31.3 0.7 35.1 1 41.7 3.6 11.5 4.2 17.9 12.7 19 25 1.1 11.9 -3.9 22 -13.3 26.8 l-3.2 1.7 5 2.3 c9.8 4.3 14.9 12.5 15.7 24.7 0.7 13.6 -3.9 23.5 -13.9 29.9 -9.1 5.8 -13.3 6.5 -44.2 7 -15.5 0.2 -28.8 0.1 -29.4 -0.2z m55.8 -22 c11.4 -5.5 11.1 -23.5 -0.5 -29.2 -3.3 -1.5 -6.4 -1.9 -18.7 -1.9 l-14.8 0 0.1 2.6 c0 1.4 0.1 8.9 0.2 16.7 l0.2 14 14.5 0 c12.8 0 15 -0.3 19 -2.1z m-2.8 -51.9 c6.7 -4.1 8.9 -12.5 5.2 -19.6 -2.9 -5.9 -6.8 -7.2 -22.4 -7.2 l-13.6 0 0 14.9 0 14.9 13.6 -0.4 c11.9 -0.3 13.9 -0.6 17.2 -2.7z"/>
  <path d="M1168.6 381.2 l0 -61 11.1 0.3 10.9 0.3 0.5 32 0.5 32 10.2 -11.5 c5.6 -6.3 12.3 -13.9 14.8 -17 l4.6 -5.4 13.1 0 c7.2 0 13 0.3 13 0.6 0 0.3 -7 8.4 -15.5 18 -8.5 9.6 -15.7 18 -16 18.8 -0.3 0.7 7.2 12.7 16.5 26.4 9.3 13.8 17 25.6 17 26.2 0 0.7 -4.2 0.9 -13 0.6 l-13.1 -0.4 -11.3 -16.9 c-6.1 -9.3 -11.8 -17.8 -12.4 -18.8 -1 -1.6 -1.4 -1.4 -4.6 2.1 l-3.5 4 -0.5 14.9 -0.5 14.9 -10.9 0.3 -11.1 0.3 0 -61z"/>
 </g>
 <g fill="#203142">
  <path d="M590.4 527 c-1 -0.7 0.5 -0.9 5.1 -0.9 4.9 0.1 5.9 0.3 4.1 0.9 -3.6 1.1 -7.4 1.1 -9.2 0z"/>
  <path d="M831.6 527 c-3.9 -1.2 -5.8 -3 -5.8 -5.2 0 -2.5 4.2 -2.7 7.7 -0.3 4.8 3.2 10.7 0 10.7 -5.7 0 -1.7 -0.4 -2 -1.7 -1.4 -4.1 1.7 -9 1.5 -12.4 -0.6 -8.3 -5.1 -8.6 -21.3 -0.6 -27.5 2.5 -1.9 3.8 -2.3 8.1 -1.7 2.8 0.3 6.9 0.6 9 0.6 l3.8 0 0 17.7 c0 19.6 -0.4 21.2 -6.8 23.8 -3.8 1.5 -7.6 1.7 -12 0.4z m9.9 -18.5 c2.4 -1.8 2.7 -2.8 2.7 -8.6 0 -5.4 -0.4 -7 -2.3 -8.7 -2.8 -2.6 -4.9 -2.6 -8.3 0 -4.8 3.8 -4.4 14.3 0.6 17.9 2.9 2 4 1.9 7.3 -0.6z"/>
  <path d="M1068.7 526.5 c-0.7 -1.8 0.3 -3.3 3.9 -5 1.2 -0.6 3 -2.4 3.7 -3.9 1.1 -2.4 0.7 -4.2 -3.9 -16.7 -2.9 -7.8 -5 -14.7 -4.7 -15.5 0.3 -0.8 1.6 -1.4 3 -1.4 2.1 0 2.8 1.1 5.8 10.7 1.9 5.9 3.7 10.7 4 10.7 0.4 0 2 -4.7 3.8 -10.5 3.2 -10.1 3.3 -10.4 6.4 -10.7 1.7 -0.2 3.2 -0.1 3.2 0.1 0 1.1 -11.6 34.2 -12.8 36.5 -1.9 3.7 -4.6 5.8 -8.5 6.7 -2.6 0.5 -3.4 0.3 -3.9 -1z"/>
  <path d="M585.5 525.3 c-2.8 -1.9 -3 -5.5 -0.3 -5.5 1 0 3.6 0.7 5.5 1.5 2 0.8 4.4 1.2 5.2 0.9 0.9 -0.3 1.6 -0.1 1.6 0.5 0 0.6 -1.2 1.1 -2.9 1.1 -1.5 0 -3.8 0.7 -4.9 1.5 -1.8 1.2 -2.5 1.2 -4.3 -0.1z"/>
  <path d="M523.4 494.7 l0 -21 3.5 0 3.4 0 -2.4 2 c-1.3 1 -1.8 1.9 -1.1 2 0.6 0 1.2 -0.5 1.2 -1 0 -0.7 1.6 -0.9 4.4 -0.6 2.4 0.3 6 0.5 8.2 0.5 2.4 0.1 3.7 0.5 3.3 1.1 -0.3 0.6 -3.8 1 -7.8 1 l-7.1 0 0 6.1 0 6.1 8.7 0 8.7 0 0 3.1 0 3.1 -6.3 0 c-7.8 0 -11.1 -0.8 -11.1 -2.7 0 -0.7 -0.9 -1.8 -2 -2.5 -1.9 -1 -2 -0.8 -2 10.3 0 10.8 0.1 11.4 2 10.8 1.3 -0.3 2 0 2 0.9 0 0.9 -1.1 1.4 -2.8 1.4 l-2.9 0 0 -21z"/>
  <path d="M559.5 512.4 c-0.4 -4 -2.1 -4.7 -3.7 -1.6 -0.8 1.8 -1.1 -2.6 -0.9 -18.3 l0.2 -20.8 2.9 0 2.8 0 0 22 c0 20.4 -0.4 26.8 -1.2 18.7z"/>
  <path d="M569.2 499.9 l0.1 -15.9 2.9 0 2.9 0 0 15.9 0 15.9 -3 0 -3.1 0 0.2 -15.9z"/>
  <path d="M615.4 513.5 c0.3 -1.3 0.6 -11.3 0.6 -22 l0 -19.7 2.6 0 c2.9 0 3.4 1.3 3.8 10 0.2 2.9 -0.1 5.3 -0.5 5.3 -0.4 0 -0.3 0.8 0.2 1.8 0.6 1.2 0.6 3.4 0.1 5.9 -0.5 2.1 -1 7.8 -1 12.5 l0 8.4 -3.2 0 c-2.9 0 -3.2 -0.3 -2.6 -2.3z"/>
  <path d="M651.2 513.6 c-1.5 -1.7 -1.8 -3.5 -1.6 -8.5 0.4 -9.8 -0.5 -14.9 -3 -14.9 -1.4 0 -1.9 -0.7 -1.9 -3.1 0 -2.4 0.4 -3.1 2 -3.1 1.4 0 2 -0.7 2 -2.4 0 -2.8 1.7 -4.8 4.2 -4.8 1.3 0 1.9 1 2.1 3.4 0.2 2.8 0.8 3.4 3.2 3.6 2.4 0.3 2.8 0.8 2.8 3.4 0 2.7 -0.3 3 -3.1 3 l-3.1 0 0 8.3 c0 9 1 12.2 4.1 12.2 1.5 0 2 0.7 2 2.6 0 2.3 -0.4 2.6 -3.9 2.6 -2.8 0 -4.6 -0.7 -5.9 -2.1z"/>
  <path d="M681.5 494.7 l0 -21 4.4 0 4.3 0 5.5 15.1 c3.1 8.3 5.8 15.5 6.2 15.9 0.4 0.4 3.4 -6.3 6.8 -15.1 l5.9 -15.9 3.8 0 3.7 0 0.7 6.2 c0.3 3.5 0.6 13 0.6 21 l0 14.7 -3.1 0 -3.1 0 0 -12.4 c0 -11.2 -0.2 -12.3 -1.7 -12 -1.2 0.2 -3.3 4.1 -6.4 12.4 -4.2 10.9 -4.8 12.1 -7 11.8 -2.1 -0.3 -3.2 -2.1 -7.6 -13.8 -2.9 -7.5 -5.5 -13.6 -6 -13.6 -0.5 0 -0.9 6.2 -0.9 13.8 l0 13.8 -3.1 0 -3.1 0 0 -21z m3.9 12.6 c0.5 -3.8 0.6 -6.2 0.4 -9.8 -0.2 -3.1 -0.4 -3.3 -1.7 -1.8 -1.8 1.8 -2.1 9.8 -0.3 9.8 0.9 0 0.9 0.3 0 1.2 -1.6 1.6 -1.5 2.9 0.1 2.9 0.7 0 1.4 -1 1.5 -2.3z"/>
  <path d="M732.5 512.8 c-6.2 -6.2 -2 -14.6 7.9 -16 2.8 -0.3 5.7 -0.7 6.5 -0.8 1.6 -0.3 1.5 -3.5 -0.2 -5.5 -1.7 -2.1 -7.8 -1.6 -9 0.7 -0.7 1.3 -2.1 2 -4.1 2 -3.8 0 -4 -1.9 -0.7 -5.7 2 -2.4 3.5 -2.9 8.6 -3.3 11.3 -0.8 13.6 2.7 13.6 20.3 0 11.1 0 11.3 -2.4 11.3 -1.3 0 -2.9 -0.5 -3.5 -1.1 -0.8 -0.8 -1.7 -0.8 -3.2 0 -1.1 0.6 -4 1.1 -6.3 1.1 -3.4 0 -4.9 -0.6 -7.3 -3z m13.8 -3.8 c0.9 -0.8 1.6 -3 1.6 -4.6 0 -2.8 -0.2 -3 -4.1 -3 -6.5 0 -10.1 5.4 -5.7 8.4 1.9 1.3 6.5 0.9 8.2 -0.8z"/>
  <path d="M762.3 499.9 l0 -15.9 2.6 0 c2.6 0 5.1 3.2 3.8 4.6 -0.4 0.4 0.3 0.3 1.5 -0.4 2.9 -1.4 3.1 -1.4 3.1 0.4 0 0.8 -0.4 1.2 -0.8 1 -0.4 -0.3 -1.4 0.6 -2.4 2 -1.2 1.8 -1.6 5.1 -1.6 13.3 l0 10.7 -3.1 0 -3.1 0 0 -15.9z"/>
  <path d="M795.6 513.2 c-5.7 -5.6 -1.8 -15.9 5.9 -15.9 6.9 0 9.9 -1.1 9.9 -3.5 0 -3.2 -1.9 -4.7 -5.8 -4.7 -2.3 0 -3.8 0.7 -4.6 2 -1.7 2.7 -7 2.9 -7 0.3 0.1 -4.5 5 -7.5 12.4 -7.5 10 0 12.1 3.7 12.2 21.8 l0 9.9 -3 0 c-1.6 0 -3.2 -0.5 -3.4 -1.1 -0.3 -0.9 -0.9 -0.9 -2.6 0 -1.2 0.6 -4.3 1.1 -7 1.1 -3.6 0 -5.2 -0.6 -7.2 -2.6z m14 -4.3 c1 -0.9 1.8 -3 1.8 -4.6 0 -2.7 -0.3 -2.9 -3.9 -2.9 -6.4 0 -10.5 4.6 -7.2 8 1.7 1.7 7 1.5 9.2 -0.5z"/>
  <path d="M862.3 513.6 c-4.1 -3.2 -5.8 -7.2 -5.8 -13.9 0 -9.7 5.2 -15.7 13.8 -15.7 7.8 0 12.8 5.2 12.8 13.3 l0 4.1 -10.2 0 c-9.6 0 -10.2 0.1 -10.2 2 0 3.2 4.5 7.2 8 7.2 1.6 0 4.2 -0.9 5.7 -2.1 2.1 -1.7 3 -1.9 4.2 -0.9 2.4 1.9 1.8 4 -1.7 6.1 -4.6 2.8 -12.6 2.7 -16.5 -0.1z m14.6 -18.8 c0 -2.5 -3.8 -5.6 -6.7 -5.6 -2.7 0 -7.7 4 -7.7 6.1 0 0.6 2.9 1 7.2 1 5.7 0 7.2 -0.3 7.2 -1.5z"/>
  <path d="M888.6 514.4 c-0.2 -0.7 -0.3 -7.6 -0.2 -15.1 l0.3 -13.7 2.9 -0.3 c1.5 -0.2 2.8 0.2 2.8 0.8 0 0.7 0.8 0.5 2.3 -0.4 3 -2.1 11.4 -2.1 13.1 -0.1 0.7 0.8 1.8 1.5 2.6 1.5 0.7 0 1.8 -0.7 2.6 -1.5 1.5 -1.8 9.3 -2 12.5 -0.4 3.6 1.9 4.9 7.2 4.9 19.3 l0 11.3 -3.6 0 -3.6 0 0 -11.7 c0 -9.3 -0.3 -12.1 -1.6 -13.3 -2 -2.1 -4.8 -2 -7.5 0.2 -1.8 1.5 -2.1 3 -2.4 13 l-0.3 11.3 -3.5 0.3 -3.5 0.3 0.6 -9.1 c0.9 -12.8 -0.7 -17.5 -6 -17.6 -4.5 0 -5.5 2.9 -5.5 15.1 l0 11.5 -3.1 0 c-1.7 0 -3.4 -0.6 -3.7 -1.3z"/>
  <path d="M943 513.5 c-3.8 -2.9 -5.7 -7.7 -5.7 -14.4 0 -9.2 5.3 -15 13.6 -15 8 0 13 5.1 13 13.3 l0 4.1 -10.2 0 c-6.4 0 -10.2 0.4 -10.2 1 0 2 3 7 4.6 7.6 0.9 0.3 5 0.3 9 -0.1 6.9 -0.6 7.3 -0.5 5.9 1.1 -4.2 5 -14.7 6.3 -20 2.5z m14.7 -18.7 c0 -2.5 -3.8 -5.6 -6.7 -5.6 -2.7 0 -7.7 4 -7.7 6.1 0 0.6 2.9 1 7.2 1 5.7 0 7.2 -0.3 7.2 -1.5z"/>
  <path d="M969.5 504.8 c0.3 -20.6 0.2 -19.7 3.1 -19.7 1.4 0 2.6 0.5 2.6 1.1 0 0.5 1 0.3 2.3 -0.5 2.8 -1.9 10.8 -2.1 13.2 -0.3 3.3 2.6 4 5.7 4 18 l0 12.4 -3.1 0 -3.1 0 0 -11.3 c0 -9.9 -0.2 -11.5 -2 -13.3 -1.1 -1.1 -3 -2 -4.1 -2 -1.1 0 -3 0.9 -4.1 2 -1.8 1.8 -2 3.4 -2 13.3 l0 11.3 -3.4 0 -3.4 0 0.1 -10.9z"/>
  <path d="M1005.8 513.8 c-2.3 -1.8 -2.5 -2.9 -2.8 -12.8 -0.4 -9.8 -0.6 -10.8 -2.4 -10.8 -2.8 0 -2.8 -5.1 0 -5.8 1.4 -0.3 2.1 -1.5 2.4 -3.8 0.3 -2.8 0.7 -3.2 3.7 -3.5 3.2 -0.3 3.3 -0.2 3.3 3.3 0 3.4 0.2 3.7 3.2 3.7 2.8 0 3.1 0.3 2.8 2.9 -0.2 2.1 -0.9 2.9 -3.1 3.1 l-2.9 0.3 0 9.6 c0 9.5 0.1 9.7 2.6 10.3 1.8 0.4 2.6 1.3 2.6 3.1 0 2.1 -0.5 2.5 -3.5 2.5 -1.9 0 -4.5 -0.9 -5.8 -1.9z"/>
  <path d="M1040.7 513.8 c-4 -2 -7.7 -7.5 -6.8 -9.8 1 -2.7 5.4 -1.8 7 1.2 2.8 5.9 12.4 7 15.8 1.8 2.9 -4.4 -0.3 -7.5 -11.6 -11.2 -7.4 -2.5 -10.9 -6.8 -10.2 -12.4 0.8 -5.8 4.9 -9.2 12.4 -10.1 4.7 -0.6 6.5 -0.4 9.6 1.1 3.9 2 8.1 8.5 6.9 10.5 -1 1.6 -6.7 1.2 -6.7 -0.5 0 -3 -3.9 -5.6 -8.1 -5.6 -4.6 0 -7.3 2 -7.3 5.6 0 3.1 2.8 5 10.7 7.7 3.4 1.1 6.9 2.7 7.8 3.4 4.1 3.1 5.3 10.6 2.4 14.8 -3.8 5.4 -14.9 7.2 -21.9 3.4z"/>
  <path d="M1099.3 512.1 c-1.9 -1.9 -3.3 -4 -2.9 -4.6 1 -1.7 5.2 -1.1 7.2 1 3.3 3.6 10.7 2.5 10.7 -1.6 0 -2.7 -1.5 -3.7 -9 -5.5 -8.6 -2.3 -11.1 -8.7 -5.4 -14.4 2.6 -2.6 3.8 -3 8.6 -3 4.6 0 6.2 0.5 8.8 2.7 4.1 3.4 4.2 6.5 0.3 6.5 -1.6 0 -3.3 -0.8 -4.1 -2 -1.7 -2.9 -7.9 -2.9 -9.4 0 -1.6 3.1 -0.7 3.8 7.2 6.1 9.5 2.9 12 6.3 9 12.8 -1.6 3.7 -5.8 5.6 -12.2 5.6 -4.6 0 -5.6 -0.4 -8.8 -3.6z"/>
  <path d="M1130.7 513.5 c-1.7 -1.9 -2 -3.6 -2 -12.7 0 -10.1 -0.1 -10.5 -2.3 -10.8 -1.7 -0.2 -2.5 -1.1 -2.7 -3.1 -0.3 -2.5 0 -2.9 2.3 -2.9 2.4 0 2.7 -0.4 2.7 -3.6 0 -3.3 0.2 -3.6 3.1 -3.6 2.9 0 3.1 0.3 3.1 3.6 0 3.3 0.2 3.6 3.1 3.6 2.8 0 3.1 0.3 3.1 3.1 0 2.8 -0.3 3.1 -3.1 3.1 l-3.2 0 0.3 9.5 0.3 9.4 2.9 0.3 c2.4 0.3 2.8 0.8 2.8 3.4 0 2.8 -0.2 3 -4.1 3 -2.8 0 -4.6 -0.6 -6.1 -2.3z"/>
  <path d="M1151.1 514.1 c-8.4 -5.4 -9.1 -21.8 -1.2 -28 4 -3.2 12.5 -2.9 16.6 0.6 3.1 2.6 5.2 7.7 5.2 12.5 0 2.1 -0.3 2.3 -9.7 2.3 -10.8 0 -12.4 0.9 -9.3 5.6 2.5 3.8 6.3 4.4 11.2 1.6 3.7 -2.1 4.2 -2.3 5.6 -0.7 1.5 1.5 1.4 1.8 -1 4.4 -3.6 3.5 -13.1 4.5 -17.3 1.7z m14.4 -19.7 c0 -1 -0.7 -2.5 -1.5 -3.2 -0.8 -0.7 -1.5 -1.9 -1.5 -2.7 0 -0.9 -1.1 -1.4 -3.3 -1.4 -3.9 0 -6.4 1.3 -5.5 2.9 0.3 0.5 -0.1 1.5 -0.9 2.3 -3.5 2.9 -1.7 4.1 5.6 4.1 6.3 0 7.2 -0.2 7.2 -1.9z"/>
  <path d="M1176.8 499.9 l0.4 -15.9 2.9 0 c1.8 0 2.8 0.5 2.8 1.6 0 1.4 0.2 1.4 2.3 0 3.3 -2.4 10.2 -2 13.5 0.5 1.4 1.1 2.7 1.6 2.7 1.1 0 -1.5 4.9 -3.3 9.3 -3.3 6.3 0 8.7 3.1 9.6 12.4 0.4 4.2 0.5 10.1 0.3 13.2 -0.3 5.5 -0.4 5.6 -3.6 5.9 l-3.4 0.3 0 -11.7 c0 -10 -0.3 -11.9 -1.8 -13.3 -2.7 -2.5 -5 -2.1 -7.9 0.8 -2.4 2.4 -2.6 3.2 -2.6 13.3 l0 10.7 -3.1 0 -3.1 0 0 -11.6 c0 -10 -0.3 -11.9 -1.8 -13.3 -2.6 -2.3 -4.5 -2.1 -7.8 0.4 -2.6 2 -2.7 2.5 -2.7 13.3 l0 11.2 -3.2 0 -3.2 0 0.3 -15.9z"/>
  <path d="M569.5 478.3 c-2.4 -2.3 -2 -4.4 0.9 -5.7 1.9 -0.8 2.9 -0.8 4.1 0.2 2 1.7 1.9 3.4 -0.3 5.4 -2.4 2.1 -2.8 2.1 -4.7 0.1z"/>
  <path d="M1168.6 381.2 l0 -61 11.1 0.3 10.9 0.3 0.5 32.5 c0.3 17.8 0.1 32.3 -0.3 32.1 -0.5 -0.1 -0.9 -13.9 -1 -30.6 -0.2 -22.1 -0.5 -30.7 -1.4 -31.6 -1.2 -1.2 -15.8 -1.6 -17.7 -0.4 -0.7 0.4 -1 20.4 -1 58.9 l0 58.2 10.8 0 c6.9 0 10.5 0.4 10.1 1 -0.3 0.6 -5.3 1 -11.4 1 l-10.6 0 0 -60.9z"/>
  <path d="M867.9 378.4 l-0.2 -58.1 23.8 0.5 c13 0.3 26.5 0.7 29.9 1 6.3 0.4 15.9 3.2 15.9 4.5 0 0.5 -2.7 -0.1 -5.8 -1.2 -5.2 -1.8 -9.2 -2.1 -34.3 -2.6 l-28.4 -0.4 -0.3 57.1 -0.2 57.2 -0.3 -58z"/>
  <path d="M1149.7 411.3 c0.4 -1.4 1 -6.7 1.4 -11.8 0.4 -6.7 0.8 -8.5 1.4 -6.5 0.9 3.3 -1 18.3 -2.6 19.9 -0.8 0.7 -0.9 0.3 -0.3 -1.5z"/>
 </g>
</svg>